ply
format ascii 1.0
comment Created in Blender version 4.2.0
element vertex 16
property float x
property float y
property float z
property float nx
property float ny
property float nz
property float s
property float t
element face 9
property list uchar uint vertex_indices
end_header
0 -1.5 0 0 -1 0 0.75 0.25
0 -1.5 3 0 -0.5547009 0.8320498 0.75 0.49
-2.598076 -1.5 -1.5 -0.7205763 -0.55470103 -0.41602492 0.9578461 0.13
0 1.5 0 0 1 0 0.25 0.25
-2.598076 1.5 -1.5 -0.7205763 0.55470103 -0.41602492 0.4578461 0.13
0 1.5 3 0 0.5547009 0.8320498 0.25 0.49
0 -1.5 3 0 -0.5547009 0.8320498 1 0.5
0 1.5 3 0 0.5547009 0.8320498 1 1
-2.598076 1.5 -1.5 -0.7205763 0.55470103 -0.41602492 0.6666666 1
-2.598076 -1.5 -1.5 -0.7205763 -0.55470103 -0.41602492 0.6666666 0.5
2.598076 -1.5 -1.5 0.7205763 -0.55470103 -0.41602492 0.5421539 0.13
2.598076 1.5 -1.5 0.7205763 0.55470103 -0.41602492 0.04215391 0.13
2.598076 1.5 -1.5 0.7205763 0.55470103 -0.41602492 0.33333328 1
2.598076 -1.5 -1.5 0.7205763 -0.55470103 -0.41602492 0.33333328 0.5
0 1.5 3 0 0.5547009 0.8320498 -5.9604645e-08 1
0 -1.5 3 0 -0.5547009 0.8320498 -5.9604645e-08 0.5
3 0 1 2
3 3 4 5
4 6 7 8 9
3 0 2 10
3 3 11 4
4 9 8 12 13
3 0 10 1
3 3 5 11
4 13 12 14 15
