ply
format ascii 1.0
comment Created in Blender version 4.2.0
element vertex 380
property float x
property float y
property float z
property float nx
property float ny
property float nz
property float s
property float t
element face 100
property list uchar uint vertex_indices
end_header
0 -1.7633557 2.4270513 -4.586182e-08 -0.57350796 0.8192 0.26174825 0.47648075
0 -0.927051 2.8531697 -5.1747944e-09 -0.3003233 0.95383745 0.26174825 0.38679263
-1.6770511 -0.927051 2.3082628 -0.5606516 -0.30032352 0.7716707 0.35143638 0.38679263
-1.4265848 -1.7633557 1.9635255 -0.48151362 -0.5735081 0.6627467 0.35143638 0.47648075
0 0.927051 2.8531697 0 0.30032334 0.95383745 0.35323015 0.47648075
0 1.7633557 2.4270513 -3.0574544e-08 0.57350796 0.8192 0.35323015 0.38679263
-1.4265848 1.7633557 1.9635255 -0.48151362 0.573508 0.6627467 0.44291827 0.3867926
-1.6770511 0.927051 2.3082628 -0.5606516 0.30032346 0.7716707 0.44291827 0.47648075
8.940697e-08 2.8531697 0.92705095 -1.9528345e-08 0.94160587 0.3367171 0.0008968804 0.0008968805
0 3 0 -1.4306445e-07 1 1.2175699e-09 0.06431596 0.06431597
-0.5449069 2.8531697 0.75 -0.19791742 0.94160587 0.27240992 0.00089687295 0.12773505
2.3841858e-07 -2.427051 1.763356 -2.7435155e-08 -0.79438126 0.60741955 0.5416936 0.09058501
0 -1.7633557 2.4270513 -4.586182e-08 -0.57350796 0.8192 0.4520055 0.090585016
-1.4265848 -1.7633557 1.9635255 -0.48151362 -0.5735081 0.6627467 0.4520055 0.0008968837
-1.0364745 -2.427051 1.4265847 -0.35703233 -0.7943812 0.49141282 0.5416936 0.00089687586
0 0 3 3.122171e-08 0 1 0.5416936 0.1820669
0 0.927051 2.8531697 0 0.30032334 0.95383745 0.4520055 0.1820669
-1.6770511 0.927051 2.3082628 -0.5606516 0.30032346 0.7716707 0.4520055 0.09237877
-1.7633557 0 2.427051 -0.58778524 -2.0814472e-08 0.809017 0.5416936 0.092378765
2.3841858e-07 2.427051 1.763356 1.7458735e-08 0.79438126 0.60741955 0.5416937 0.27354878
8.940697e-08 2.8531697 0.92705095 -1.9528345e-08 0.94160587 0.3367171 0.45200554 0.27354878
-0.5449069 2.8531697 0.75 -0.19791742 0.94160587 0.27240992 0.4520055 0.18386066
-1.0364745 2.427051 1.4265847 -0.35703233 0.79438114 0.49141282 0.5416936 0.18386066
8.940697e-08 -2.8531697 0.92705095 -1.9528345e-08 -0.94160587 0.3367171 0.5416937 0.3650307
2.3841858e-07 -2.427051 1.763356 -2.7435155e-08 -0.79438126 0.60741955 0.45200554 0.3650307
-1.0364745 -2.427051 1.4265847 -0.35703233 -0.7943812 0.49141282 0.45200554 0.27534258
-0.5449069 -2.8531697 0.75 -0.19791728 -0.94160587 0.27240992 0.5416937 0.27534258
0 -0.927051 2.8531697 -5.1747944e-09 -0.3003233 0.95383745 0.5416937 0.45651263
0 0 3 3.122171e-08 0 1 0.45200554 0.45651263
-1.7633557 0 2.427051 -0.58778524 -2.0814472e-08 0.809017 0.45200554 0.3668245
-1.6770511 -0.927051 2.3082628 -0.5606516 -0.30032352 0.7716707 0.5416937 0.3668245
0 1.7633557 2.4270513 -3.0574544e-08 0.57350796 0.8192 0.0008968831 0.6051127
2.3841858e-07 2.427051 1.763356 1.7458735e-08 0.79438126 0.60741955 0.0008968792 0.51542455
-1.0364745 2.427051 1.4265847 -0.35703233 0.79438114 0.49141282 0.09058501 0.51542455
-1.4265848 1.7633557 1.9635255 -0.48151362 0.573508 0.6627467 0.090585016 0.6051127
0 -3 0 -6.6966344e-08 -1 -3.6527097e-09 0.06610973 0.06431597
8.940697e-08 -2.8531697 0.92705095 -1.9528345e-08 -0.94160587 0.3367171 0.12952882 0.0008968787
-0.5449069 -2.8531697 0.75 -0.19791728 -0.94160587 0.27240992 0.19294791 0.06431596
-1.6770511 0.927051 2.3082628 -0.5606516 0.30032346 0.7716707 0.09237877 0.6051127
-1.4265848 1.7633557 1.9635255 -0.48151362 0.573508 0.6627467 0.09237877 0.51542455
-2.3082628 1.7633557 0.75 -0.7791055 0.5735081 0.2531467 0.1820669 0.51542455
-2.7135258 0.927051 0.88167804 -0.9071533 0.30032346 0.294752 0.1820669 0.6051127
-0.5449069 2.8531697 0.75 -0.19791742 0.94160587 0.27240992 0.0008968674 0.12952879
0 3 0 -1.4306445e-07 1 1.2175699e-09 0.06431595 0.19294788
-0.88167787 2.8531697 0.28647453 -0.3202371 0.94160587 0.10405135 0.00089686 0.25636697
-1.0364745 -2.427051 1.4265847 -0.35703233 -0.7943812 0.49141282 0.18386066 0.6051127
-1.4265848 -1.7633557 1.9635255 -0.48151362 -0.5735081 0.6627467 0.18386066 0.51542455
-2.3082628 -1.7633557 0.75 -0.7791055 -0.5735081 0.2531467 0.27354878 0.51542455
-1.677051 -2.427051 0.5449069 -0.57769036 -0.7943812 0.18770303 0.27354878 0.6051127
-1.7633557 0 2.427051 -0.58778524 -2.0814472e-08 0.809017 0.27534255 0.6051127
-1.6770511 0.927051 2.3082628 -0.5606516 0.30032346 0.7716707 0.27534255 0.51542455
-2.7135258 0.927051 0.88167804 -0.9071533 0.30032346 0.294752 0.36503068 0.51542455
-2.8531694 0 0.92705107 -0.95105654 -2.081447e-08 0.309017 0.36503068 0.6051127
-1.0364745 2.427051 1.4265847 -0.35703233 0.79438114 0.49141282 0.36682445 0.6051127
-0.5449069 2.8531697 0.75 -0.19791742 0.94160587 0.27240992 0.36682445 0.51542455
-0.88167787 2.8531697 0.28647453 -0.3202371 0.94160587 0.10405135 0.45651257 0.51542455
-1.677051 2.427051 0.5449069 -0.5776904 0.7943812 0.18770303 0.45651257 0.6051127
-0.5449069 -2.8531697 0.75 -0.19791728 -0.94160587 0.27240992 0.63317555 0.09058501
-1.0364745 -2.427051 1.4265847 -0.35703233 -0.7943812 0.49141282 0.5434874 0.090585016
-1.677051 -2.427051 0.5449069 -0.57769036 -0.7943812 0.18770303 0.5434874 0.0008968864
-0.88167787 -2.8531697 0.28647453 -0.3202371 -0.9416058 0.10405135 0.63317555 0.00089687854
-1.6770511 -0.927051 2.3082628 -0.5606516 -0.30032352 0.7716707 0.6331756 0.18206689
-1.7633557 0 2.427051 -0.58778524 -2.0814472e-08 0.809017 0.5434874 0.1820669
-2.8531694 0 0.92705107 -0.95105654 -2.081447e-08 0.309017 0.5434874 0.092378765
-2.7135258 -0.927051 0.88167804 -0.9071533 -0.3003235 0.294752 0.63317555 0.09237876
-1.4265848 1.7633557 1.9635255 -0.48151362 0.573508 0.6627467 0.6331756 0.27354878
-1.0364745 2.427051 1.4265847 -0.35703233 0.79438114 0.49141282 0.5434875 0.27354878
-1.677051 2.427051 0.5449069 -0.5776904 0.7943812 0.18770303 0.5434874 0.18386066
-2.3082628 1.7633557 0.75 -0.7791055 0.5735081 0.2531467 0.6331756 0.18386064
0 -3 0 -6.6966344e-08 -1 -3.6527097e-09 0.06610971 0.12952879
-0.5449069 -2.8531697 0.75 -0.19791728 -0.94160587 0.27240992 0.12952879 0.19294788
-0.88167787 -2.8531697 0.28647453 -0.3202371 -0.9416058 0.10405135 0.0661097 0.25636697
-1.4265848 -1.7633557 1.9635255 -0.48151362 -0.5735081 0.6627467 0.6331756 0.36503068
-1.6770511 -0.927051 2.3082628 -0.5606516 -0.30032352 0.7716707 0.5434875 0.3650307
-2.7135258 -0.927051 0.88167804 -0.9071533 -0.3003235 0.294752 0.5434875 0.27534258
-2.3082628 -1.7633557 0.75 -0.7791055 -0.5735081 0.2531467 0.6331756 0.27534255
0 -3 0 -6.6966344e-08 -1 -3.6527097e-09 0.19474165 0.06431597
-0.88167787 -2.8531697 0.28647453 -0.3202371 -0.9416058 0.10405135 0.25816074 0.000896875
-0.88167787 -2.8531697 -0.28647447 -0.32023713 -0.94160587 -0.1040513 0.3215798 0.06431596
-2.3082628 -1.7633557 0.75 -0.7791055 -0.5735081 0.2531467 0.6331756 0.45651263
-2.7135258 -0.927051 0.88167804 -0.9071533 -0.3003235 0.294752 0.5434875 0.45651263
-2.7135258 -0.927051 -0.8816779 -0.9071533 -0.30032346 -0.29475197 0.5434875 0.3668245
-2.3082628 -1.7633557 -0.7500001 -0.77910554 -0.5735081 -0.25314674 0.6331756 0.3668245
-2.7135258 0.927051 0.88167804 -0.9071533 0.30032346 0.294752 0.63317555 0.5479945
-2.3082628 1.7633557 0.75 -0.7791055 0.5735081 0.2531467 0.54348737 0.5479945
-2.3082628 1.7633557 -0.7500001 -0.77910554 0.5735081 -0.25314674 0.54348737 0.45830634
-2.7135258 0.927051 -0.8816779 -0.9071533 0.30032346 -0.29475197 0.6331755 0.45830634
-0.88167787 2.8531697 0.28647453 -0.3202371 0.94160587 0.10405135 0.19474165 0.1295288
0 3 0 -1.4306445e-07 1 1.2175699e-09 0.25816074 0.06610971
-0.88167787 2.8531697 -0.28647447 -0.32023695 0.941606 -0.10405129 0.3215798 0.12952879
-1.677051 -2.427051 0.5449069 -0.57769036 -0.7943812 0.18770303 0.0008968831 0.69659466
-2.3082628 -1.7633557 0.75 -0.7791055 -0.5735081 0.2531467 0.0008968792 0.60690653
-2.3082628 -1.7633557 -0.7500001 -0.77910554 -0.5735081 -0.25314674 0.09058501 0.6069065
-1.6770511 -2.427051 -0.54490685 -0.5776904 -0.79438114 -0.18770292 0.090585016 0.69659466
-2.8531694 0 0.92705107 -0.95105654 -2.081447e-08 0.309017 0.09237877 0.69659466
-2.7135258 0.927051 0.88167804 -0.9071533 0.30032346 0.294752 0.092378765 0.6069065
-2.7135258 0.927051 -0.8816779 -0.9071533 0.30032346 -0.29475197 0.1820669 0.6069065
-2.8531694 0 -0.9270509 -0.95105654 0 -0.30901694 0.1820669 0.69659466
-1.677051 2.427051 0.5449069 -0.5776904 0.7943812 0.18770303 0.18386067 0.69659466
-0.88167787 2.8531697 0.28647453 -0.3202371 0.94160587 0.10405135 0.18386066 0.6069065
-0.88167787 2.8531697 -0.28647447 -0.32023695 0.941606 -0.10405129 0.27354878 0.6069065
-1.6770511 2.427051 -0.54490685 -0.5776904 0.79438114 -0.18770292 0.2735488 0.6965946
-0.88167787 -2.8531697 0.28647453 -0.3202371 -0.9416058 0.10405135 0.27534255 0.6965946
-1.677051 -2.427051 0.5449069 -0.57769036 -0.7943812 0.18770303 0.27534255 0.6069065
-1.6770511 -2.427051 -0.54490685 -0.5776904 -0.79438114 -0.18770292 0.36503068 0.6069065
-0.88167787 -2.8531697 -0.28647447 -0.32023713 -0.94160587 -0.1040513 0.3650307 0.6965946
-2.7135258 -0.927051 0.88167804 -0.9071533 -0.3003235 0.294752 0.36682445 0.6965946
-2.8531694 0 0.92705107 -0.95105654 -2.081447e-08 0.309017 0.36682445 0.6069065
-2.8531694 0 -0.9270509 -0.95105654 0 -0.30901694 0.45651257 0.6069065
-2.7135258 -0.927051 -0.8816779 -0.9071533 -0.30032346 -0.29475197 0.45651257 0.6965946
-2.3082628 1.7633557 0.75 -0.7791055 0.5735081 0.2531467 0.4583063 0.6965946
-1.677051 2.427051 0.5449069 -0.5776904 0.7943812 0.18770303 0.45830628 0.6069065
-1.6770511 2.427051 -0.54490685 -0.5776904 0.79438114 -0.18770292 0.54799443 0.6069065
-2.3082628 1.7633557 -0.7500001 -0.77910554 0.5735081 -0.25314674 0.54799443 0.6965946
-2.7135258 -0.927051 -0.8816779 -0.9071533 -0.30032346 -0.29475197 0.7246574 0.09058501
-2.8531694 0 -0.9270509 -0.95105654 0 -0.30901694 0.6349693 0.090585016
-1.7633557 0 -2.4270508 -0.58778536 0 -0.809017 0.6349693 0.0008968891
-1.6770511 -0.927051 -2.3082628 -0.5606516 -0.3003233 -0.77167076 0.7246574 0.0008968812
-2.3082628 1.7633557 -0.7500001 -0.77910554 0.5735081 -0.25314674 0.7246574 0.18206689
-1.6770511 2.427051 -0.54490685 -0.5776904 0.79438114 -0.18770292 0.6349693 0.18206689
-1.0364747 2.427051 -1.4265847 -0.3570323 0.7943813 -0.49141276 0.6349693 0.09237876
-1.426585 1.7633557 -1.9635258 -0.48151365 0.573508 -0.6627467 0.7246574 0.09237875
0 -3 0 -6.6966344e-08 -1 -3.6527097e-09 0.19474167 0.19474165
-0.88167787 -2.8531697 -0.28647447 -0.32023713 -0.94160587 -0.1040513 0.25816074 0.13132256
-0.5449069 -2.8531697 -0.74999994 -0.19791727 -0.941606 -0.27240992 0.32157984 0.19474165
-2.3082628 -1.7633557 -0.7500001 -0.77910554 -0.5735081 -0.25314674 0.7246574 0.27354878
-2.7135258 -0.927051 -0.8816779 -0.9071533 -0.30032346 -0.29475197 0.6349693 0.27354878
-1.6770511 -0.927051 -2.3082628 -0.5606516 -0.3003233 -0.77167076 0.6349693 0.18386064
-1.426585 -1.7633557 -1.9635258 -0.48151365 -0.57350796 -0.66274667 0.7246574 0.18386064
-2.7135258 0.927051 -0.8816779 -0.9071533 0.30032346 -0.29475197 0.7246575 0.36503068
-2.3082628 1.7633557 -0.7500001 -0.77910554 0.5735081 -0.25314674 0.6349693 0.36503068
-1.426585 1.7633557 -1.9635258 -0.48151365 0.573508 -0.6627467 0.6349693 0.27534255
-1.6770511 0.927051 -2.3082628 -0.5606516 0.3003233 -0.77167076 0.7246574 0.27534255
-0.88167787 2.8531697 -0.28647447 -0.32023695 0.941606 -0.10405129 0.00089685986 0.25816074
0 3 0 -1.4306445e-07 1 1.2175699e-09 0.06431594 0.32157984
-0.5449069 2.8531697 -0.74999994 -0.19791715 0.941606 -0.27240995 0.0008968524 0.38499892
-1.6770511 -2.427051 -0.54490685 -0.5776904 -0.79438114 -0.18770292 0.7246575 0.45651263
-2.3082628 -1.7633557 -0.7500001 -0.77910554 -0.5735081 -0.25314674 0.63496935 0.45651263
-1.426585 -1.7633557 -1.9635258 -0.48151365 -0.57350796 -0.66274667 0.6349693 0.3668245
-1.0364747 -2.427051 -1.4265847 -0.35703236 -0.7943812 -0.4914127 0.7246575 0.36682448
-2.8531694 0 -0.9270509 -0.95105654 0 -0.30901694 0.72465736 0.54799443
-2.7135258 0.927051 -0.8816779 -0.9071533 0.30032346 -0.29475197 0.63496923 0.5479945
-1.6770511 0.927051 -2.3082628 -0.5606516 0.3003233 -0.77167076 0.63496923 0.45830634
-1.7633557 0 -2.4270508 -0.58778536 0 -0.809017 0.72465736 0.45830634
-1.6770511 2.427051 -0.54490685 -0.5776904 0.79438114 -0.18770292 0.72465736 0.6394764
-0.88167787 2.8531697 -0.28647447 -0.32023695 0.941606 -0.10405129 0.63496923 0.6394764
-0.5449069 2.8531697 -0.74999994 -0.19791715 0.941606 -0.27240995 0.63496923 0.5497883
-1.0364747 2.427051 -1.4265847 -0.3570323 0.7943813 -0.49141276 0.72465736 0.5497883
-0.88167787 -2.8531697 -0.28647447 -0.32023713 -0.94160587 -0.1040513 0.00089688314 0.78807646
-1.6770511 -2.427051 -0.54490685 -0.5776904 -0.79438114 -0.18770292 0.00089687924 0.69838834
-1.0364747 -2.427051 -1.4265847 -0.35703236 -0.7943812 -0.4914127 0.09058501 0.69838834
-0.5449069 -2.8531697 -0.74999994 -0.19791727 -0.941606 -0.27240992 0.090585016 0.78807646
-1.0364747 2.427051 -1.4265847 -0.3570323 0.7943813 -0.49141276 0.09237877 0.78807646
-0.5449069 2.8531697 -0.74999994 -0.19791715 0.941606 -0.27240995 0.09237877 0.69838834
-5.9604645e-08 2.8531697 -0.92705095 -9.764173e-09 0.94160587 -0.33671713 0.1820669 0.69838834
-1.7881393e-07 2.427051 -1.7633559 -4.9882093e-08 0.7943813 -0.60741943 0.1820669 0.78807646
-0.5449069 -2.8531697 -0.74999994 -0.19791727 -0.941606 -0.27240992 0.18386066 0.78807646
-1.0364747 -2.427051 -1.4265847 -0.35703236 -0.7943812 -0.4914127 0.18386064 0.69838834
-1.7881393e-07 -2.427051 -1.7633559 -7.482315e-08 -0.79438126 -0.6074195 0.27354878 0.69838834
-5.9604645e-08 -2.8531697 -0.92705095 -9.764173e-09 -0.94160587 -0.33671713 0.27354878 0.78807646
-1.6770511 -0.927051 -2.3082628 -0.5606516 -0.3003233 -0.77167076 0.27534255 0.78807646
-1.7633557 0 -2.4270508 -0.58778536 0 -0.809017 0.27534255 0.69838834
0 0 -3 -3.122171e-08 0 -1 0.36503068 0.69838834
0 -0.927051 -2.8531697 -0 -0.30032328 -0.9538376 0.36503068 0.78807646
-1.426585 1.7633557 -1.9635258 -0.48151365 0.573508 -0.6627467 0.36682445 0.78807646
-1.0364747 2.427051 -1.4265847 -0.3570323 0.7943813 -0.49141276 0.36682445 0.69838834
-1.7881393e-07 2.427051 -1.7633559 -4.9882093e-08 0.7943813 -0.60741943 0.45651257 0.69838834
0 1.7633557 -2.4270513 0 0.57350796 -0.8192001 0.4565126 0.78807646
0 -3 0 -6.6966344e-08 -1 -3.6527097e-09 0.066109695 0.25816074
-0.5449069 -2.8531697 -0.74999994 -0.19791727 -0.941606 -0.27240992 0.12952878 0.32157984
-5.9604645e-08 -2.8531697 -0.92705095 -9.764173e-09 -0.94160587 -0.33671713 0.06610969 0.38499892
-1.426585 -1.7633557 -1.9635258 -0.48151365 -0.57350796 -0.66274667 0.4583063 0.78807646
-1.6770511 -0.927051 -2.3082628 -0.5606516 -0.3003233 -0.77167076 0.4583063 0.69838834
0 -0.927051 -2.8531697 -0 -0.30032328 -0.9538376 0.54799443 0.69838834
0 -1.7633557 -2.4270513 5.6053338e-08 -0.57350796 -0.8192001 0.54799443 0.78807646
-1.6770511 0.927051 -2.3082628 -0.5606516 0.3003233 -0.77167076 0.54978824 0.78807646
-1.426585 1.7633557 -1.9635258 -0.48151365 0.573508 -0.6627467 0.54978824 0.69838834
0 1.7633557 -2.4270513 0 0.57350796 -0.8192001 0.63947636 0.69838834
0 0.927051 -2.8531697 -1.5524382e-08 0.30032325 -0.9538376 0.63947636 0.78807646
-0.5449069 2.8531697 -0.74999994 -0.19791715 0.941606 -0.27240995 0.13132256 0.25816074
0 3 0 -1.4306445e-07 1 1.2175699e-09 0.19474164 0.32157984
-5.9604645e-08 2.8531697 -0.92705095 -9.764173e-09 0.94160587 -0.33671713 0.13132255 0.38499892
-1.0364747 -2.427051 -1.4265847 -0.35703236 -0.7943812 -0.4914127 0.81613934 0.090585
-1.426585 -1.7633557 -1.9635258 -0.48151365 -0.57350796 -0.66274667 0.7264512 0.09058501
0 -1.7633557 -2.4270513 5.6053338e-08 -0.57350796 -0.8192001 0.7264512 0.0008968811
-1.7881393e-07 -2.427051 -1.7633559 -7.482315e-08 -0.79438126 -0.6074195 0.81613934 0.00089687324
-1.7633557 0 -2.4270508 -0.58778536 0 -0.809017 0.81613934 0.18206689
-1.6770511 0.927051 -2.3082628 -0.5606516 0.3003233 -0.77167076 0.7264512 0.1820669
0 0.927051 -2.8531697 -1.5524382e-08 0.30032325 -0.9538376 0.7264512 0.09237877
0 0 -3 -3.122171e-08 0 -1 0.81613934 0.092378765
0 0 -3 -3.122171e-08 0 -1 0.8161394 0.2735488
0 0.927051 -2.8531697 -1.5524382e-08 0.30032325 -0.9538376 0.7264512 0.2735488
1.6770511 0.927051 -2.3082628 0.5606516 0.30032337 -0.7716708 0.7264512 0.18386069
1.7633557 0 -2.427051 0.58778524 -2.0814472e-08 -0.809017 0.81613934 0.18386067
-1.7881393e-07 2.427051 -1.7633559 -4.9882093e-08 0.7943813 -0.60741943 0.8161394 0.36503068
-5.9604645e-08 2.8531697 -0.92705095 -9.764173e-09 0.94160587 -0.33671713 0.7264513 0.36503068
0.5449068 2.8531697 -0.75000006 0.19791713 0.941606 -0.27240992 0.7264512 0.27534255
1.0364745 2.427051 -1.426585 0.3570322 0.79438126 -0.49141273 0.8161394 0.27534255
-5.9604645e-08 -2.8531697 -0.92705095 -9.764173e-09 -0.94160587 -0.33671713 0.8161394 0.4565126
-1.7881393e-07 -2.427051 -1.7633559 -7.482315e-08 -0.79438126 -0.6074195 0.7264513 0.45651263
1.0364745 -2.427051 -1.426585 0.35703218 -0.7943812 -0.4914128 0.7264513 0.36682448
0.5449068 -2.8531697 -0.75000006 0.19791722 -0.94160587 -0.27240992 0.8161394 0.36682448
0 -0.927051 -2.8531697 -0 -0.30032328 -0.9538376 0.8161394 0.54799443
0 0 -3 -3.122171e-08 0 -1 0.7264513 0.54799443
1.7633557 0 -2.427051 0.58778524 -2.0814472e-08 -0.809017 0.7264513 0.45830634
1.6770511 -0.927051 -2.3082628 0.5606516 -0.30032337 -0.7716708 0.8161394 0.4583063
0 1.7633557 -2.4270513 0 0.57350796 -0.8192001 0.8161394 0.6394764
-1.7881393e-07 2.427051 -1.7633559 -4.9882093e-08 0.7943813 -0.60741943 0.7264513 0.6394764
1.0364745 2.427051 -1.426585 0.3570322 0.79438126 -0.49141273 0.7264513 0.5497883
1.426585 1.7633557 -1.9635258 0.48151362 0.57350796 -0.6627467 0.8161394 0.54978824
0 -3 0 -6.6966344e-08 -1 -3.6527097e-09 0.1965354 0.25816077
-5.9604645e-08 -2.8531697 -0.92705095 -9.764173e-09 -0.94160587 -0.33671713 0.25995448 0.32157984
0.5449068 -2.8531697 -0.75000006 0.19791722 -0.94160587 -0.27240992 0.1965354 0.38499892
0 -1.7633557 -2.4270513 5.6053338e-08 -0.57350796 -0.8192001 0.8161394 0.73095816
0 -0.927051 -2.8531697 -0 -0.30032328 -0.9538376 0.7264513 0.73095816
1.6770511 -0.927051 -2.3082628 0.5606516 -0.30032337 -0.7716708 0.7264513 0.64127004
1.426585 -1.7633557 -1.9635258 0.48151368 -0.57350796 -0.6627467 0.8161394 0.64127004
0 0.927051 -2.8531697 -1.5524382e-08 0.30032325 -0.9538376 0.00089688314 0.87955844
0 1.7633557 -2.4270513 0 0.57350796 -0.8192001 0.00089687924 0.78987026
1.426585 1.7633557 -1.9635258 0.48151362 0.57350796 -0.6627467 0.09058501 0.78987026
1.6770511 0.927051 -2.3082628 0.5606516 0.30032337 -0.7716708 0.090585016 0.8795584
-5.9604645e-08 2.8531697 -0.92705095 -9.764173e-09 0.94160587 -0.33671713 0.3233736 0.064315975
0 3 0 -1.4306445e-07 1 1.2175699e-09 0.38679266 0.00089688256
0.5449068 2.8531697 -0.75000006 0.19791713 0.941606 -0.27240992 0.45021176 0.06431597
-1.7881393e-07 -2.427051 -1.7633559 -7.482315e-08 -0.79438126 -0.6074195 0.092378765 0.8795584
0 -1.7633557 -2.4270513 5.6053338e-08 -0.57350796 -0.8192001 0.092378765 0.78987026
1.426585 -1.7633557 -1.9635258 0.48151368 -0.57350796 -0.6627467 0.18206689 0.78987026
1.0364745 -2.427051 -1.426585 0.35703218 -0.7943812 -0.4914128 0.1820669 0.8795584
0.5449068 2.8531697 -0.75000006 0.19791713 0.941606 -0.27240992 0.3233736 0.1295288
0 3 0 -1.4306445e-07 1 1.2175699e-09 0.38679266 0.06610972
0.88167787 2.8531697 -0.28647465 0.3202368 0.9416059 -0.104051374 0.45021176 0.1295288
1.0364745 -2.427051 -1.426585 0.35703218 -0.7943812 -0.4914128 0.18386066 0.8795584
1.426585 -1.7633557 -1.9635258 0.48151368 -0.57350796 -0.6627467 0.18386066 0.78987026
2.308263 -1.7633557 -0.7500002 0.77910554 -0.5735081 -0.25314674 0.27354878 0.78987026
1.6770511 -2.427051 -0.54490715 0.57769036 -0.79438126 -0.18770304 0.27354878 0.8795584
1.7633557 0 -2.427051 0.58778524 -2.0814472e-08 -0.809017 0.27534255 0.8795584
1.6770511 0.927051 -2.3082628 0.5606516 0.30032337 -0.7716708 0.27534255 0.78987026
2.7135258 0.927051 -0.88167804 0.9071534 0.30032337 -0.29475203 0.36503068 0.78987026
2.8531694 0 -0.92705107 0.95105654 -2.081447e-08 -0.309017 0.36503068 0.8795584
1.0364745 2.427051 -1.426585 0.3570322 0.79438126 -0.49141273 0.36682445 0.8795584
0.5449068 2.8531697 -0.75000006 0.19791713 0.941606 -0.27240992 0.36682445 0.78987026
0.88167787 2.8531697 -0.28647465 0.3202368 0.9416059 -0.104051374 0.4565126 0.78987026
1.6770511 2.427051 -0.54490715 0.5776903 0.7943812 -0.18770303 0.4565126 0.8795584
0.5449068 -2.8531697 -0.75000006 0.19791722 -0.94160587 -0.27240992 0.4583063 0.8795584
1.0364745 -2.427051 -1.426585 0.35703218 -0.7943812 -0.4914128 0.4583063 0.78987026
1.6770511 -2.427051 -0.54490715 0.57769036 -0.79438126 -0.18770304 0.54799443 0.78987026
0.88167787 -2.8531697 -0.28647465 0.32023686 -0.941606 -0.10405138 0.54799443 0.8795584
1.6770511 -0.927051 -2.3082628 0.5606516 -0.30032337 -0.7716708 0.54978824 0.8795584
1.7633557 0 -2.427051 0.58778524 -2.0814472e-08 -0.809017 0.54978824 0.78987026
2.8531694 0 -0.92705107 0.95105654 -2.081447e-08 -0.309017 0.63947636 0.78987026
2.7135258 -0.927051 -0.88167804 0.9071533 -0.3003234 -0.29475197 0.63947636 0.8795584
1.426585 1.7633557 -1.9635258 0.48151362 0.57350796 -0.6627467 0.6412701 0.8795584
1.0364745 2.427051 -1.426585 0.3570322 0.79438126 -0.49141273 0.6412701 0.78987026
1.6770511 2.427051 -0.54490715 0.5776903 0.7943812 -0.18770303 0.7309582 0.78987026
2.308263 1.7633557 -0.7500002 0.77910554 0.5735081 -0.25314677 0.7309582 0.8795584
0 -3 0 -6.6966344e-08 -1 -3.6527097e-09 0.3233736 0.19474164
0.5449068 -2.8531697 -0.75000006 0.19791722 -0.94160587 -0.27240992 0.38679266 0.13132255
0.88167787 -2.8531697 -0.28647465 0.32023686 -0.941606 -0.10405138 0.45021176 0.19474164
1.426585 -1.7633557 -1.9635258 0.48151368 -0.57350796 -0.6627467 0.9076212 0.09058501
1.6770511 -0.927051 -2.3082628 0.5606516 -0.30032337 -0.7716708 0.8179331 0.090585016
2.7135258 -0.927051 -0.88167804 0.9071533 -0.3003234 -0.29475197 0.8179331 0.0008968838
2.308263 -1.7633557 -0.7500002 0.77910554 -0.5735081 -0.25314674 0.9076212 0.0008968759
1.6770511 0.927051 -2.3082628 0.5606516 0.30032337 -0.7716708 0.9076212 0.1820669
1.426585 1.7633557 -1.9635258 0.48151362 0.57350796 -0.6627467 0.8179331 0.18206692
2.308263 1.7633557 -0.7500002 0.77910554 0.5735081 -0.25314677 0.8179331 0.09237879
2.7135258 0.927051 -0.88167804 0.9071534 0.30032337 -0.29475203 0.9076212 0.09237878
2.308263 -1.7633557 -0.7500002 0.77910554 -0.5735081 -0.25314674 0.9076212 0.2735488
2.7135258 -0.927051 -0.88167804 0.9071533 -0.3003234 -0.29475197 0.8179331 0.2735488
2.7135258 -0.927051 0.8816779 0.9071533 -0.30032343 0.29475203 0.8179331 0.18386067
2.308263 -1.7633557 0.7500001 0.77910554 -0.573508 0.25314674 0.9076212 0.18386067
2.7135258 0.927051 -0.88167804 0.9071534 0.30032337 -0.29475203 0.9076212 0.36503068
2.308263 1.7633557 -0.7500002 0.77910554 0.5735081 -0.25314677 0.8179331 0.36503068
2.308263 1.7633557 0.7500001 0.77910554 0.573508 0.25314674 0.8179331 0.27534255
2.7135258 0.927051 0.8816779 0.9071533 0.30032343 0.29475203 0.9076212 0.27534252
0.88167787 2.8531697 -0.28647465 0.3202368 0.9416059 -0.104051374 0.3233736 0.25995448
0 3 0 -1.4306445e-07 1 1.2175699e-09 0.3867927 0.1965354
0.8816779 2.8531697 0.28647438 0.32023683 0.9416059 0.10405128 0.45021176 0.25995448
1.6770511 -2.427051 -0.54490715 0.57769036 -0.79438126 -0.18770304 0.90762126 0.4565126
2.308263 -1.7633557 -0.7500002 0.77910554 -0.5735081 -0.25314674 0.8179331 0.4565126
2.308263 -1.7633557 0.7500001 0.77910554 -0.573508 0.25314674 0.8179331 0.36682448
1.6770513 -2.427051 0.54490674 0.5776904 -0.79438114 0.18770286 0.9076212 0.36682448
2.8531694 0 -0.92705107 0.95105654 -2.081447e-08 -0.309017 0.90762126 0.54799443
2.7135258 0.927051 -0.88167804 0.9071534 0.30032337 -0.29475203 0.81793314 0.54799443
2.7135258 0.927051 0.8816779 0.9071533 0.30032343 0.29475203 0.8179331 0.4583063
2.8531694 0 0.9270509 0.95105654 0 0.30901694 0.90762126 0.4583063
1.6770511 2.427051 -0.54490715 0.5776903 0.7943812 -0.18770303 0.90762126 0.63947636
0.88167787 2.8531697 -0.28647465 0.3202368 0.9416059 -0.104051374 0.81793314 0.6394764
0.8816779 2.8531697 0.28647438 0.32023683 0.9416059 0.10405128 0.81793314 0.54978824
1.6770513 2.427051 0.54490674 0.5776904 0.7943812 0.18770288 0.90762126 0.54978824
0.88167787 -2.8531697 -0.28647465 0.32023686 -0.941606 -0.10405138 0.90762126 0.73095816
1.6770511 -2.427051 -0.54490715 0.57769036 -0.79438126 -0.18770304 0.81793314 0.73095816
1.6770513 -2.427051 0.54490674 0.5776904 -0.79438114 0.18770286 0.81793314 0.64127004
0.8816779 -2.8531697 0.28647438 0.32023692 -0.941606 0.10405128 0.90762126 0.64127004
2.7135258 -0.927051 -0.88167804 0.9071533 -0.3003234 -0.29475197 0.90762126 0.8224401
2.8531694 0 -0.92705107 0.95105654 -2.081447e-08 -0.309017 0.81793314 0.8224401
2.8531694 0 0.9270509 0.95105654 0 0.30901694 0.81793314 0.73275197
2.7135258 -0.927051 0.8816779 0.9071533 -0.30032343 0.29475203 0.90762126 0.73275197
2.308263 1.7633557 -0.7500002 0.77910554 0.5735081 -0.25314677 0.00089688314 0.97104037
1.6770511 2.427051 -0.54490715 0.5776903 0.7943812 -0.18770303 0.0008968792 0.88135225
1.6770513 2.427051 0.54490674 0.5776904 0.7943812 0.18770288 0.09058501 0.8813522
2.308263 1.7633557 0.7500001 0.77910554 0.573508 0.25314674 0.090585016 0.97104037
0 -3 0 -6.6966344e-08 -1 -3.6527097e-09 0.3233736 0.3251673
0.88167787 -2.8531697 -0.28647465 0.32023686 -0.941606 -0.10405138 0.3867927 0.26174822
0.8816779 -2.8531697 0.28647438 0.32023692 -0.941606 0.10405128 0.45021176 0.3251673
2.308263 1.7633557 0.7500001 0.77910554 0.573508 0.25314674 0.09237877 0.97104037
1.6770513 2.427051 0.54490674 0.5776904 0.7943812 0.18770288 0.092378765 0.8813522
1.0364748 2.427051 1.4265848 0.35703233 0.7943812 0.49141267 0.1820669 0.8813522
1.426585 1.7633557 1.9635258 0.48151368 0.57350796 0.6627467 0.1820669 0.97104037
0 -3 0 -6.6966344e-08 -1 -3.6527097e-09 0.0008968523 0.38679266
0.8816779 -2.8531697 0.28647438 0.32023692 -0.941606 0.10405128 0.06431593 0.45021176
0.544907 -2.8531697 0.74999994 0.1979173 -0.94160587 0.27240983 0.00089684484 0.5136308
2.308263 -1.7633557 0.7500001 0.77910554 -0.573508 0.25314674 0.18386066 0.97104037
2.7135258 -0.927051 0.8816779 0.9071533 -0.30032343 0.29475203 0.18386066 0.8813522
1.6770511 -0.927051 2.3082628 0.5606516 -0.30032328 0.77167076 0.27354878 0.8813522
1.426585 -1.7633557 1.9635258 0.48151374 -0.57350796 0.6627468 0.27354878 0.9710403
2.7135258 0.927051 0.8816779 0.9071533 0.30032343 0.29475203 0.27534255 0.9710403
2.308263 1.7633557 0.7500001 0.77910554 0.573508 0.25314674 0.27534255 0.8813522
1.426585 1.7633557 1.9635258 0.48151368 0.57350796 0.6627467 0.36503068 0.8813522
1.6770511 0.927051 2.3082628 0.5606516 0.30032328 0.77167076 0.36503068 0.9710403
0.8816779 2.8531697 0.28647438 0.32023683 0.9416059 0.10405128 0.06610969 0.38679266
0 3 0 -1.4306445e-07 1 1.2175699e-09 0.12952878 0.45021176
0.544907 2.8531697 0.74999994 0.19791722 0.941606 0.27240986 0.06610968 0.51363087
1.6770513 -2.427051 0.54490674 0.5776904 -0.79438114 0.18770286 0.36682448 0.9710403
2.308263 -1.7633557 0.7500001 0.77910554 -0.573508 0.25314674 0.36682445 0.8813522
1.426585 -1.7633557 1.9635258 0.48151374 -0.57350796 0.6627468 0.4565126 0.8813522
1.0364748 -2.427051 1.4265848 0.3570324 -0.7943812 0.4914127 0.4565126 0.9710403
2.8531694 0 0.9270509 0.95105654 0 0.30901694 0.4583063 0.9710403
2.7135258 0.927051 0.8816779 0.9071533 0.30032343 0.29475203 0.4583063 0.8813522
1.6770511 0.927051 2.3082628 0.5606516 0.30032328 0.77167076 0.54799443 0.8813522
1.7633557 0 2.4270508 0.58778536 0 0.809017 0.54799443 0.9710403
1.6770513 2.427051 0.54490674 0.5776904 0.7943812 0.18770288 0.54978824 0.9710403
0.8816779 2.8531697 0.28647438 0.32023683 0.9416059 0.10405128 0.54978824 0.8813522
0.544907 2.8531697 0.74999994 0.19791722 0.941606 0.27240986 0.63947636 0.8813522
1.0364748 2.427051 1.4265848 0.35703233 0.7943812 0.49141267 0.63947636 0.9710403
0.8816779 -2.8531697 0.28647438 0.32023692 -0.941606 0.10405128 0.6412701 0.9710403
1.6770513 -2.427051 0.54490674 0.5776904 -0.79438114 0.18770286 0.6412701 0.8813522
1.0364748 -2.427051 1.4265848 0.3570324 -0.7943812 0.4914127 0.7309582 0.8813522
0.544907 -2.8531697 0.74999994 0.1979173 -0.94160587 0.27240983 0.7309582 0.9710403
2.7135258 -0.927051 0.8816779 0.9071533 -0.30032343 0.29475203 0.7327521 0.9710403
2.8531694 0 0.9270509 0.95105654 0 0.30901694 0.7327521 0.8813522
1.7633557 0 2.4270508 0.58778536 0 0.809017 0.8224402 0.8813522
1.6770511 -0.927051 2.3082628 0.5606516 -0.30032328 0.77167076 0.8224402 0.9710403
1.6770511 -0.927051 2.3082628 0.5606516 -0.30032328 0.77167076 0.9991031 0.09058501
1.7633557 0 2.4270508 0.58778536 0 0.809017 0.909415 0.090585016
0 0 3 3.122171e-08 0 1 0.909415 0.00089688646
0 -0.927051 2.8531697 -5.1747944e-09 -0.3003233 0.95383745 0.9991031 0.00089687866
1.426585 1.7633557 1.9635258 0.48151368 0.57350796 0.6627467 0.9991031 0.1820669
1.0364748 2.427051 1.4265848 0.35703233 0.7943812 0.49141267 0.909415 0.1820669
2.3841858e-07 2.427051 1.763356 1.7458735e-08 0.79438126 0.60741955 0.909415 0.09237878
0 1.7633557 2.4270513 -3.0574544e-08 0.57350796 0.8192 0.9991031 0.09237877
0 -3 0 -6.6966344e-08 -1 -3.6527097e-09 0.13132255 0.38679266
0.544907 -2.8531697 0.74999994 0.1979173 -0.94160587 0.27240983 0.19474164 0.45021176
8.940697e-08 -2.8531697 0.92705095 -1.9528345e-08 -0.94160587 0.3367171 0.13132255 0.51363087
1.426585 -1.7633557 1.9635258 0.48151374 -0.57350796 0.6627468 0.9991031 0.27354878
1.6770511 -0.927051 2.3082628 0.5606516 -0.30032328 0.77167076 0.909415 0.2735488
0 -0.927051 2.8531697 -5.1747944e-09 -0.3003233 0.95383745 0.909415 0.18386067
0 -1.7633557 2.4270513 -4.586182e-08 -0.57350796 0.8192 0.9991031 0.18386066
1.6770511 0.927051 2.3082628 0.5606516 0.30032328 0.77167076 0.9991032 0.36503065
1.426585 1.7633557 1.9635258 0.48151368 0.57350796 0.6627467 0.909415 0.36503068
0 1.7633557 2.4270513 -3.0574544e-08 0.57350796 0.8192 0.909415 0.27534252
0 0.927051 2.8531697 0 0.30032334 0.95383745 0.9991031 0.27534252
0.544907 2.8531697 0.74999994 0.19791722 0.941606 0.27240986 0.1965354 0.3867927
0 3 0 -1.4306445e-07 1 1.2175699e-09 0.25995448 0.45021176
8.940697e-08 2.8531697 0.92705095 -1.9528345e-08 0.94160587 0.3367171 0.19653538 0.51363087
1.0364748 -2.427051 1.4265848 0.3570324 -0.7943812 0.4914127 0.9991032 0.4565126
1.426585 -1.7633557 1.9635258 0.48151374 -0.57350796 0.6627468 0.90941507 0.4565126
0 -1.7633557 2.4270513 -4.586182e-08 -0.57350796 0.8192 0.909415 0.36682448
2.3841858e-07 -2.427051 1.763356 -2.7435155e-08 -0.79438126 0.60741955 0.9991032 0.36682445
1.7633557 0 2.4270508 0.58778536 0 0.809017 0.9991032 0.54799443
1.6770511 0.927051 2.3082628 0.5606516 0.30032328 0.77167076 0.90941507 0.54799443
0 0.927051 2.8531697 0 0.30032334 0.95383745 0.90941507 0.4583063
0 0 3 3.122171e-08 0 1 0.9991032 0.4583063
1.0364748 2.427051 1.4265848 0.35703233 0.7943812 0.49141267 0.9991032 0.63947636
0.544907 2.8531697 0.74999994 0.19791722 0.941606 0.27240986 0.90941507 0.63947636
8.940697e-08 2.8531697 0.92705095 -1.9528345e-08 0.94160587 0.3367171 0.90941507 0.54978824
2.3841858e-07 2.427051 1.763356 1.7458735e-08 0.79438126 0.60741955 0.9991032 0.54978824
0.544907 -2.8531697 0.74999994 0.1979173 -0.94160587 0.27240983 0.9991032 0.7309582
1.0364748 -2.427051 1.4265848 0.3570324 -0.7943812 0.4914127 0.90941507 0.7309582
2.3841858e-07 -2.427051 1.763356 -2.7435155e-08 -0.79438126 0.60741955 0.90941507 0.6412701
8.940697e-08 -2.8531697 0.92705095 -1.9528345e-08 -0.94160587 0.3367171 0.9991032 0.6412701
4 0 1 2 3
4 4 5 6 7
3 8 9 10
4 11 12 13 14
4 15 16 17 18
4 19 20 21 22
4 23 24 25 26
4 27 28 29 30
4 31 32 33 34
3 35 36 37
4 38 39 40 41
3 42 43 44
4 45 46 47 48
4 49 50 51 52
4 53 54 55 56
4 57 58 59 60
4 61 62 63 64
4 65 66 67 68
3 69 70 71
4 72 73 74 75
3 76 77 78
4 79 80 81 82
4 83 84 85 86
3 87 88 89
4 90 91 92 93
4 94 95 96 97
4 98 99 100 101
4 102 103 104 105
4 106 107 108 109
4 110 111 112 113
4 114 115 116 117
4 118 119 120 121
3 122 123 124
4 125 126 127 128
4 129 130 131 132
3 133 134 135
4 136 137 138 139
4 140 141 142 143
4 144 145 146 147
4 148 149 150 151
4 152 153 154 155
4 156 157 158 159
4 160 161 162 163
4 164 165 166 167
3 168 169 170
4 171 172 173 174
4 175 176 177 178
3 179 180 181
4 182 183 184 185
4 186 187 188 189
4 190 191 192 193
4 194 195 196 197
4 198 199 200 201
4 202 203 204 205
4 206 207 208 209
3 210 211 212
4 213 214 215 216
4 217 218 219 220
3 221 222 223
4 224 225 226 227
3 228 229 230
4 231 232 233 234
4 235 236 237 238
4 239 240 241 242
4 243 244 245 246
4 247 248 249 250
4 251 252 253 254
3 255 256 257
4 258 259 260 261
4 262 263 264 265
4 266 267 268 269
4 270 271 272 273
3 274 275 276
4 277 278 279 280
4 281 282 283 284
4 285 286 287 288
4 289 290 291 292
4 293 294 295 296
4 297 298 299 300
3 301 302 303
4 304 305 306 307
3 308 309 310
4 311 312 313 314
4 315 316 317 318
3 319 320 321
4 322 323 324 325
4 326 327 328 329
4 330 331 332 333
4 334 335 336 337
4 338 339 340 341
4 342 343 344 345
4 346 347 348 349
3 350 351 352
4 353 354 355 356
4 357 358 359 360
3 361 362 363
4 364 365 366 367
4 368 369 370 371
4 372 373 374 375
4 376 377 378 379
